<svg width="24" height="24" viewBox="0 0 24 24" fill="none" xmlns="http://www.w3.org/2000/svg">
<path d="M21.179 12.794L21.192 12.808L12 22L2.808 12.808L2.821 12.794C1.75356 11.5496 1.19584 9.9477 1.25959 8.30941C1.32334 6.67111 2.00384 5.11742 3.16475 3.95968C4.32566 2.80194 5.8812 2.12567 7.51966 2.06639C9.15812 2.00711 10.7585 2.5692 12 3.64002C13.2415 2.5692 14.8419 2.00711 16.4803 2.06639C18.1188 2.12567 19.6743 2.80194 20.8352 3.95968C21.9962 5.11742 22.6767 6.67111 22.7404 8.30941C22.8042 9.9477 22.2464 11.5496 21.179 12.794Z" fill="white"/>
</svg>
